<?xml version="1.0" standalone="no"?><!DOCTYPE svg PUBLIC "-//W3C//DTD SVG 1.1//EN" "http://www.w3.org/Graphics/SVG/1.1/DTD/svg11.dtd">
<svg t="1508987156090" class="icon" style="" viewBox="0 0 1024 1024" version="1.1" xmlns="http://www.w3.org/2000/svg" p-id="4371" xmlns:xlink="http://www.w3.org/1999/xlink" width="20" height="20">
	<defs>
		<style type="text/css"></style>
	</defs>
	<path d="M758.4 515.2c0-137.6-112-249.6-249.6-249.6s-249.6 112-249.6 249.6v246.4h496m-246.4-336c-51.2 0-92.8 41.6-92.8 92.8 0 12.8-9.6 22.4-22.4 22.4s-22.4-9.6-22.4-22.4c0-73.6 60.8-137.6 137.6-137.6 12.8 0 22.4 9.6 22.4 22.4s-9.6 22.4-22.4 22.4zM809.6 809.6H214.4c-41.6 0-73.6 48-73.6 86.4v64h739.2v-64c0-41.6-32-86.4-70.4-86.4zM508.8 220.8c12.8 0 22.4-9.6 22.4-22.4V92.8c0-12.8-9.6-22.4-22.4-22.4s-22.4 9.6-22.4 22.4v105.6c0 12.8 12.8 22.4 22.4 22.4zM336 252.8c3.2 6.4 12.8 9.6 19.2 9.6 3.2 0 6.4 0 9.6-3.2 9.6-6.4 12.8-19.2 9.6-32L320 140.8c-3.2-12.8-19.2-16-28.8-9.6-9.6 6.4-12.8 19.2-9.6 32l54.4 89.6zM137.6 323.2l89.6 51.2c3.2 3.2 6.4 3.2 9.6 3.2 6.4 0 16-3.2 19.2-9.6 6.4-9.6 3.2-25.6-9.6-32L160 284.8c-9.6-6.4-25.6-3.2-32 9.6-3.2 9.6 0 22.4 9.6 28.8zM659.2 259.2c3.2 3.2 6.4 3.2 9.6 3.2 6.4 0 16-3.2 19.2-9.6l51.2-89.6c6.4-9.6 3.2-25.6-9.6-32-9.6-6.4-25.6-3.2-32 9.6l-51.2 89.6c-3.2 9.6 0 22.4 12.8 28.8zM784 377.6c3.2 0 6.4 0 9.6-3.2l89.6-51.2c9.6-6.4 12.8-19.2 9.6-32-6.4-9.6-19.2-12.8-32-9.6l-89.6 51.2c-9.6 6.4-12.8 19.2-9.6 32 6.4 9.6 12.8 12.8 22.4 12.8z" fill="#707070" p-id="4372">
	</path>
</svg>