<?xml version="1.0" standalone="no"?><!DOCTYPE svg PUBLIC "-//W3C//DTD SVG 1.1//EN" "http://www.w3.org/Graphics/SVG/1.1/DTD/svg11.dtd"><svg t="1508987733517" class="icon" style="" viewBox="0 0 1038 1024" version="1.1" xmlns="http://www.w3.org/2000/svg" p-id="10871" xmlns:xlink="http://www.w3.org/1999/xlink" width="20.2734375" height="20"><defs><style type="text/css"></style></defs><path d="M433.370175 653.953036c-10.080589-15.823384-20.871353-44.599777-32.367175-86.363973-4.316306-8.636704-6.474458-15.823384-6.474458-21.591761-4.316306-12.955056-9.373485-32.386618-15.103999-58.295708-7.215332-25.90909-12.238742-46.049802-15.103999-60.454884-15.845896-86.363973-45.313022-128.0944-88.469937-125.228119-15.845896-1.416256-33.816177-1.416256-53.943586 0-5.76633 1.451048-15.103999 4.317329-28.052916 8.636704-38.839587 11.536754-66.889433 12.954033-84.152609 4.317329-2.90005 11.537777 2.865257 27.360138 17.262152 47.50085 2.865257 15.85613-2.158153 36.703947-15.103999 62.613036-8.631588 14.405081-23.029506 38.156018-43.156916 71.251787-44.605917 74.858942-66.89148 123.06792-66.89148 144.659681 0 50.401923 29.467125 77.727269 88.469937 82.044598 18.678408 0 33.783431-2.158153 45.313022-6.477528-8.630564-4.317329-12.94687-11.504008-12.94687-21.589714-2.90005-14.372336 2.158153-26.618241 15.103999-36.705993 22.992667-2.867304 75.522044-4.317329 157.517523-4.317329 2.865257 1.451048 7.181563 7.219425 12.945847 17.272385 7.181563 17.273409 15.813151 29.519314 25.894763 36.705993 20.12741 11.504008 42.413995 15.112186 66.89148 10.794857 30.209022-2.867304 45.313022-16.530488 45.313022-41.023322 0-4.317329-3.608178-10.05296-10.789741-17.272385C434.07728 659.012262 433.370175 656.854109 433.370175 653.953036zM243.48343 554.634006l-4.314259-2.159176-62.577221 2.159176c-7.214309 0-10.788717-1.418302-10.788717-4.319375 24.443715-57.551764 48.180326-96.417957 71.207785-116.591415 10.04682 7.219425 22.285562 38.154995 36.681434 92.841501 1.416256 5.768377 2.867304 10.794857 4.316306 15.114233C278.007735 551.765679 266.478144 556.085054 243.48343 554.634006zM677.132968 617.247043c-8.631588 1.451048-20.871353 4.319375-36.682457 8.636704-30.209022 10.087753-51.078329 9.378601-62.575174-2.159176-4.316306-1.416256-6.474458-5.733585-6.474458-12.955056 1.416256-86.363973 10.789741-161.190169 28.05087-224.546126 12.947893-54.685483-2.156106-82.753749-45.313022-84.204797-15.845896 1.451048-33.816177 6.477528-53.943586 15.114233-21.578458 11.536754-40.998763 15.112186-58.260915 10.794857 1.416256 10.087753 3.574409 19.431561 6.474458 28.069289 4.316306 8.635681 7.181563 14.405081 8.630564 17.272385 1.416256 40.314171-1.449002 94.29255-8.630564 161.933089-5.765307 53.269227-8.631588 93.583398-8.631588 120.908744 8.631588 34.545794 33.075303 56.137555 73.365938 64.774259 30.209022-1.451048 61.125149-2.901073 92.784196-4.319375 31.625278 0 63.284325-2.158153 94.942349-6.477528 18.678408-2.867304 28.760021-11.504008 30.209022-25.90909C731.076554 639.5807 713.072505 617.247043 677.132968 617.247043zM968.200136 617.247043c-8.630564 1.451048-20.869307 4.319375-36.681434 8.636704-30.209022 10.087753-51.079352 9.378601-62.575174-2.159176-4.316306-1.416256-6.474458-5.733585-6.474458-12.955056 1.416256-86.363973 10.788717-161.190169 28.05087-224.546126 12.94687-54.685483-2.158153-82.753749-45.313022-84.204797-15.845896 1.451048-33.816177 6.477528-53.945633 15.114233-21.576411 11.536754-40.996716 15.112186-58.259892 10.794857 1.416256 10.087753 3.574409 19.431561 6.474458 28.069289 4.314259 8.635681 7.181563 14.405081 8.630564 17.272385 1.416256 40.314171-1.449002 94.29255-8.630564 161.933089-5.76633 53.269227-8.631588 93.583398-8.631588 120.908744 8.631588 34.545794 33.075303 56.137555 73.365938 64.774259 30.209022-1.451048 61.125149-2.901073 92.784196-4.319375 31.625278 0 63.283302-2.158153 94.942349-6.477528 18.678408-2.867304 28.760021-11.504008 30.209022-25.90909C1022.144746 639.5807 1004.140697 617.247043 968.200136 617.247043z" p-id="10872" fill="#707070"></path></svg>